/* XPM */
static char *_632a917d2b54f34de5a1ab444971fa97Gk8ySTPhj5x3O70[] = {
/* columns rows colors chars-per-pixel */
"50 50 200 2 ",
"   c #000000",
".  c #0C0000",
"X  c #130001",
"o  c #14000A",
"O  c #19100C",
"+  c #000015",
"@  c #000019",
"#  c #130411",
"$  c #170610",
"%  c #1C1312",
"&  c #1C1816",
"*  c #19161B",
"=  c #1E1B1B",
"-  c #200B00",
";  c #26180F",
":  c #251B14",
">  c #211C1C",
",  c #24221E",
"<  c #29241C",
"1  c #061B2B",
"2  c #181A22",
"3  c #1D1C23",
"4  c #211F20",
"5  c #1A2227",
"6  c #022131",
"7  c #00253C",
"8  c #1A2732",
"9  c #15323D",
"0  c #242424",
"q  c #272827",
"w  c #292925",
"e  c #242728",
"r  c #262929",
"t  c #292C2B",
"y  c #25312D",
"u  c #2D312E",
"i  c #212D34",
"p  c #233234",
"a  c #273338",
"s  c #2B3A3E",
"d  c #323B35",
"f  c #303D3C",
"g  c #33413B",
"h  c #4C4733",
"j  c #002C41",
"k  c #1C3A49",
"l  c #273B43",
"z  c #2B3E42",
"x  c #1B404E",
"c  c #194452",
"v  c #2D464A",
"b  c #344445",
"n  c #314649",
"m  c #344C4E",
"M  c #3B4D4D",
"N  c #2C4950",
"B  c #314E55",
"V  c #26565D",
"C  c #3C5253",
"Z  c #395558",
"A  c #004A6F",
"S  c #1D576A",
"D  c #1D5E73",
"F  c #295A66",
"G  c #3D5F61",
"H  c #3A666D",
"J  c #346A7A",
"K  c #3C7378",
"L  c #424D44",
"P  c #43524B",
"I  c #455956",
"U  c #445D5C",
"Y  c #46605F",
"T  c #405F61",
"R  c #456362",
"E  c #496462",
"W  c #4B6867",
"Q  c #456D6D",
"!  c #4B6D6C",
"~  c #576E64",
"^  c #516E6B",
"/  c #4B706F",
"(  c #5A756F",
")  c #4B6F72",
"_  c #4D7473",
"`  c #477779",
"'  c #4C7C7C",
"]  c #557572",
"[  c #557775",
"{  c #537B7A",
"}  c #697767",
"|  c #647D71",
" . c #4E807F",
".. c #51807F",
"X. c #7F8464",
"o. c #658178",
"O. c #87967C",
"+. c #437986",
"@. c #497B81",
"#. c #557E80",
"$. c #448285",
"%. c #4F8282",
"&. c #49858A",
"*. c #468A8F",
"=. c #4C8A8C",
"-. c #558584",
";. c #598787",
":. c #538D8D",
">. c #5C8D8D",
",. c #57908F",
"<. c #5A918F",
"1. c #468892",
"2. c #4C8E91",
"3. c #5F8E90",
"4. c #569292",
"5. c #5A9492",
"6. c #5C9897",
"7. c #579098",
"8. c #5B9A9A",
"9. c #6C8B82",
"0. c #608989",
"q. c #65968F",
"w. c #759689",
"e. c #7E9E8F",
"r. c #608E90",
"t. c #619795",
"y. c #629B9A",
"u. c #699B9B",
"i. c #729E9A",
"p. c #68A19C",
"a. c #74A39D",
"s. c #7CA498",
"d. c #5C9CA0",
"f. c #689EA0",
"g. c #69A6A7",
"h. c #6DA4A4",
"j. c #6CA8A7",
"k. c #75A7A4",
"l. c #74ACAB",
"z. c #7CB3AF",
"x. c #73B2B3",
"c. c #7CB5B5",
"v. c #72B6BB",
"b. c #75B9BE",
"n. c #7CB8B8",
"m. c #7DBBBB",
"M. c #77BBC0",
"N. c #7FC2C3",
"B. c #9BAB8C",
"V. c #82A494",
"C. c #85A999",
"Z. c #8CAD9B",
"A. c #8FB39F",
"S. c #91B19B",
"D. c #A9BB99",
"F. c #87AEA0",
"G. c #8EB4A3",
"H. c #85B4AB",
"J. c #91B5A2",
"K. c #96BBA8",
"L. c #8BBDB5",
"P. c #80BEBD",
"I. c #A0BBA0",
"U. c #B8C69D",
"Y. c #8EC0B7",
"T. c #8FC2B9",
"R. c #92C3B6",
"E. c #93C5BB",
"W. c #95CABB",
"Q. c #9DCBBC",
"!. c #AFC7A8",
"~. c #B9CCA5",
"^. c #A7CBB5",
"/. c #A3CEBB",
"(. c #A6D1BC",
"). c #B8D5B7",
"_. c #C3D8B1",
"`. c #83C3C3",
"'. c #8EC6C0",
"]. c #94CAC1",
"[. c #9BCFC3",
"{. c #9DD1C4",
"}. c #A3D5C5",
"|. c #A9D7C4",
" X c #A3D7C8",
".X c #AADCCA",
"XX c #B2DFC8",
"oX c #AEE1CE",
"OX c #B4E3CC",
"+X c #B3E6D1",
"@X c #B8E5D1",
"#X c #B7EAD5",
"$X c #BCEDD5",
"%X c #BCEED8",
"&X c #BFF0D7",
"*X c #BEF2DA",
"=X c #C3F5DB",
"-X c #C6F9DF",
";X c #C6FAE0",
":X c #CAFDE2",
/* pixels */
"0 0 0 0 0 0 0 0 0 0 0 0 0 0 0 0 0 0 0 0 0 0 0 0 0 0 0 0 0 0 0 0 0 0 0 0 0 0 0 0 0 0 0 0 0 0 0 0 0 0 ",
"0 0 0 0 0 0 0 0 0 0 0 0 0 0 0 0 0 0 0 0 0 0 0 0 0 0 0 0 0 0 0 0 0 0 0 0 0 0 0 0 0 0 0 0 0 0 0 0 0 0 ",
"0 0 0 0 0 0 0 0 0 0 0 0 0 0 0 0 0 0 0 0 0 0 0 0 0 0 0 0 0 0 0 0 0 0 0 0 0 0 0 0 0 0 0 0 0 0 0 0 0 0 ",
"0 0 0 0 0 0 0 0 0 0 0 0 0 0 0 0 0 0 0 0 0 0 0 0 0 0 0 0 0 0 0 0 0 0 0 0 0 0 0 0 0 0 0 0 0 0 0 0 0 0 ",
"0 0 0 0 0 0 0 0 0 0 0 0 0 0 0 0 0 0 0 0 0 0 0 0 0 0 0 0 0 0 0 0 0 0 0 0 0 0 0 0 0 0 0 0 0 0 0 0 0 0 ",
"0 0 0 0 0 0 0 0 0 0 0 0 0 0 0 0 0 0 0 0 0 0 0 0 0 0 0 0 0 0 0 0 0 0 0 0 0 0 0 0 0 0 0 0 0 0 0 0 0 0 ",
"0 0 0 0 0 0 0 0 0 0 0 0 0 0 0 0 0 0 0 0 0 r r r r r r r r 0 0 0 0 0 0 0 0 0 0 0 0 0 0 0 0 0 0 0 0 0 ",
"0 0 0 0 0 0 0 0 0 0 0 0 0 0 0 0 0 0 0 0 r %             % r 0 0 0 0 0 0 0 0 0 0 0 0 0 0 0 0 0 0 0 0 ",
"0 0 0 0 0 0 0 0 0 0 0 0 0 0 0 0 0 0 0 0   Z r.r.>.>.r.3.Z . 0 0 0 0 0 0 0 0 0 0 0 0 0 0 0 0 0 0 0 0 ",
"0 0 0 0 0 0 0 0 0 0 0 0 0 0 0 0 0 0 0 5 ;.m.`.`.`.`.`.`.m.) . t 0 0 0 0 0 0 0 0 0 0 0 0 0 0 0 0 0 0 ",
"0 0 0 0 0 0 0 0 0 0 0 0 0 0 0 0 0 t X R `.P.m.m.m.m.m.m.`.n.z = r 0 0 0 0 0 0 0 0 0 0 0 0 0 0 0 0 0 ",
"0 0 0 0 0 0 0 0 0 0 0 0 0 0 0 0 0 t   ;.`.m.m.P.m.m.m.m.m.`.#.  t 0 0 0 0 0 0 0 0 0 0 0 0 0 0 0 0 0 ",
"0 0 0 0 0 0 0 0 0 0 0 0 0 0 0 0 0 t   ;.N.m.m.b.m.P.m.m.l.y.-.2 4 0 0 0 0 0 0 0 0 0 0 0 0 0 0 0 0 0 ",
"0 0 0 0 0 0 0 0 0 0 0 0 0 0 0 0 0 3   ] ].v.R.^.z.n.v.g.d.8.K.( @ q 0 0 0 0 0 0 0 0 0 0 0 0 0 0 0 0 ",
"0 0 0 0 0 0 0 0 0 0 0 0 0 0 0 0 # N a   O.).^.G.h.v.E.Q.Q.E.l.>.8 0 r r 0 0 0 0 0 0 0 0 0 0 0 0 0 0 ",
"0 0 0 0 0 0 0 0 0 0 0 0 0 0 > 2 ' ' s Z 1 X.!.^.)._._.~.S.a.2.<.n * < % t r 0 0 0 0 0 0 0 0 0 0 0 0 ",
"0 0 0 0 0 0 0 0 0 0 0 0 0 0 3 ` p.H a W U 9 &.p.Z.S.s.2.2.=.4.6.Q   s v   & r 0 0 0 0 0 0 0 0 0 0 0 ",
"0 0 0 0 0 0 0 0 0 0 t t 0 X B 5.g.;.e W U Y ! @.*.*.2.4.5.5.4.6.! a :.l.u.m O r 0 0 0 0 0 0 0 0 0 0 ",
"0 0 0 0 0 0 0 0 0 t = * t u N 4.x.x.z C Y W { { <.6.5.6.4.5.6.>.b ` j.m.`.l.i > 0 0 0 0 0 0 0 0 0 0 ",
"0 0 0 0 0 0 0 0 t   P   C.9.  %.m.`.h.U U C ,.8.4.4.4.:.5.,. .Y M ' x.P.m.`.) X t 0 0 0 0 0 0 0 0 0 ",
"0 0 0 0 0 0 0 t   | @X(.|.P m v l.`.m.m.h.0./ -.5.4.y.j.-.>.u._ Y t.m.m.j.g.'   0 t 0 0 0 0 0 0 0 0 ",
"0 0 0 0 0 0 t X ~ &X.X+XV.  ! C 8 u.`.`.`.`.c.c.m.n.v.M.c.c.x.:.! m.m.v.x.T.^ I d $ t 0 0 0 0 0 0 0 ",
"0 0 0 0 0 0 0 y XX$XL.$Xf C E R C n >.h.P.b.b.b.b.m.Q.(.!.t.:.>.T L.'.Q.).K.K ( J.  0 t 0 0 0 0 0 0 ",
"0 0 0 0 0 0 = g $XT.[./.1 R Y U R E u c C.).Q./.Q.).U.B.q.4.6.;.s h } D.Z.:.8.G XXK.  = r 0 0 0 0 0 ",
"0 0 0 0 0 0 0 p |.*X=Xe.p W U U U Y C -.4.I.~.U.D.w.;.$.4.6.;._ U l R $.2.4.y.V Z.*Xs.L $ t 0 0 0 0 ",
"0 0 0 0 0 0 0 3 &.l.#Xe.p W U U Y U ! 5.4.2.=.$.2.2.5.6.5.4.4.6.Q b ] _ -.5.6.` G.oX XA.  t 0 0 0 0 ",
"0 0 0 0 0 0 0 0 N A [.J.@ ^ U U Y U _ 4.5.5.5.6.5.4.4.4.4.4.4.6._ i I { 5.4.y.F K.#XQ.(.  q 0 0 0 0 ",
"0 0 0 0 0 0 0 0 ; 8 9.=Xo.6 R E R U U ! ..4.4.4.4.4.4.4.4.4.5.4.W M Y ! 4.:.$.F.=XY.+Xs.  u 0 0 0 0 ",
"0 0 0 0 0 0 0 0 r :   }.;XV.U m U W M %.5.4.4.4.5.5.6.6.6.5.6.5.n   l ^ { a.Q.*X}.H.:Xi.  t 0 0 0 0 ",
"0 0 0 0 0 0 0 0 0 t % B R.;XOXG.( v C T ;.4.5.6.4.:.=.=.=.&.=.K M Z.F.OX$X$X:X$XE.=X].k ; r 0 0 0 0 ",
"0 0 0 0 0 0 0 0 0 0 t $ + w.#X:X.Xw.C i ' 5.:.$.:.a.R.R.R.R.W.F.(.:X;X=X$X*X X}.:X{.S & q 0 0 0 0 0 ",
"0 0 0 0 0 0 0 0 0 0 t * P K.K.$X=X=X/.s.W Z ] C.|.$X=X=X=X=X$X-X;X$X$XY.+.[ H F ` F 4 0 0 0 0 0 0 0 ",
"0 0 0 0 0 0 0 0 0 0 0 u   J.$X$X$X=X:X-XOXOXOX=X-X=X-X{.1.7.E. XE.oX.X+X{   : -   - q 0 0 0 0 0 0 0 ",
"0 0 0 0 0 0 0 0 0 0 0 t X C %X=X.XE.Q.+X$X%X%X*X.X{.l.@.S z XX#X}.$X:X{.z < t r t r 0 0 0 0 0 0 0 0 ",
"0 0 0 0 0 0 0 0 0 0 0 0 < 6 f.*X=X.XL.H.R.E.;XG.9 j 7 o < X R j.z..Xk.x 3 0 0 0 0 0 0 0 0 0 0 0 0 0 ",
"0 0 0 0 0 0 0 0 0 0 0 0 e < j l.oX=X:X=X.X.X/.d   w < t 0 r * 7 7 k @ - q 0 0 0 0 0 0 0 0 0 0 0 0 0 ",
"0 0 0 0 0 0 0 0 0 0 0 0 0 0 < 9 D u.a.a.J c 1 = t r e 0 0 0 q < < : q r 0 0 0 0 0 0 0 0 0 0 0 0 0 0 ",
"0 0 0 0 0 0 0 0 0 0 0 0 0 0 0 : <       , ; 0 r 0 0 0 0 0 0 0 0 0 e 0 0 0 0 0 0 0 0 0 0 0 0 0 0 0 0 ",
"0 0 0 0 0 0 0 0 0 0 0 0 0 0 0 e 0 t u t 0 e 0 0 0 0 0 0 0 0 0 0 0 0 0 0 0 0 0 0 0 0 0 0 0 0 0 0 0 0 ",
"0 0 0 0 0 0 0 0 0 0 0 0 0 0 0 0 0 0 0 0 0 0 0 0 0 0 0 0 0 0 0 0 0 0 0 0 0 0 0 0 0 0 0 0 0 0 0 0 0 0 ",
"0 0 0 0 0 0 0 0 0 0 0 0 0 0 0 0 0 0 0 0 0 0 0 0 0 0 0 0 0 0 0 0 0 0 0 0 0 0 0 0 0 0 0 0 0 0 0 0 0 0 ",
"0 0 0 0 0 0 0 0 0 0 0 0 0 0 0 0 0 0 0 0 0 0 0 0 0 0 0 0 0 0 0 0 0 0 0 0 0 0 0 0 0 0 0 0 0 0 0 0 0 0 ",
"0 0 0 0 0 0 0 0 0 0 0 0 0 0 0 0 0 0 0 0 0 0 0 0 0 0 0 0 0 0 0 0 0 0 0 0 0 0 0 0 0 0 0 0 0 0 0 0 0 0 ",
"0 0 0 0 0 0 0 0 0 0 0 0 0 0 0 0 0 0 0 0 0 0 0 0 0 0 0 0 0 0 0 0 0 0 0 0 0 0 0 0 0 0 0 0 0 0 0 0 0 0 ",
"0 0 0 0 0 0 0 0 0 0 0 0 0 0 0 0 0 0 0 0 0 0 0 0 0 0 0 0 0 0 0 0 0 0 0 0 0 0 0 0 0 0 0 0 0 0 0 0 0 0 ",
"0 0 0 0 0 0 0 0 0 0 0 0 0 0 0 0 0 0 0 0 0 0 0 0 0 0 0 0 0 0 0 0 0 0 0 0 0 0 0 0 0 0 0 0 0 0 0 0 0 0 ",
"0 0 0 0 0 0 0 0 0 0 0 0 0 0 0 0 0 0 0 0 0 0 0 0 0 0 0 0 0 0 0 0 0 0 0 0 0 0 0 0 0 0 0 0 0 0 0 0 0 0 ",
"0 0 0 0 0 0 0 0 0 0 0 0 0 0 0 0 0 0 0 0 0 0 0 0 0 0 0 0 0 0 0 0 0 0 0 0 0 0 0 0 0 0 0 0 0 0 0 0 0 0 ",
"0 0 0 0 0 0 0 0 0 0 0 0 0 0 0 0 0 0 0 0 0 0 0 0 0 0 0 0 0 0 0 0 0 0 0 0 0 0 0 0 0 0 0 0 0 0 0 0 0 0 ",
"0 0 0 0 0 0 0 0 0 0 0 0 0 0 0 0 0 0 0 0 0 0 0 0 0 0 0 0 0 0 0 0 0 0 0 0 0 0 0 0 0 0 0 0 0 0 0 0 0 0 "
};
