/* XPM */
static char *_875d0d0c5804154bf5dee63384c0cb7bnMbYapdG371rMW0[] = {
/* columns rows colors chars-per-pixel */
"50 50 225 2 ",
"   c #00000D",
".  c #000016",
"X  c #00011C",
"o  c #09091E",
"O  c #00151E",
"+  c #00181E",
"@  c #000223",
"#  c #020029",
"$  c #000C29",
"%  c #16062B",
"&  c #041627",
"*  c #041A25",
"=  c #0C1B24",
"-  c #141E26",
";  c #1B1E24",
":  c #151D2B",
">  c #181931",
",  c #310E2D",
"<  c #271C2E",
"1  c #391A2F",
"2  c #092328",
"3  c #1B2126",
"4  c #15232A",
"5  c #1C222A",
"6  c #232426",
"7  c #272827",
"8  c #242629",
"9  c #29252B",
"0  c #272828",
"q  c #282828",
"w  c #362329",
"e  c #312D2C",
"r  c #32312C",
"t  c #39312F",
"y  c #2D2633",
"u  c #282936",
"i  c #332C33",
"p  c #3C2C34",
"a  c #3F2F3A",
"s  c #3A3335",
"d  c #3B3639",
"f  c #4E1734",
"g  c #620030",
"h  c #462B37",
"j  c #572038",
"k  c #433837",
"l  c #433A3E",
"z  c #4C3D3C",
"x  c #553A3A",
"c  c #692D3A",
"v  c #63383E",
"b  c #733A3F",
"n  c #49423A",
"m  c #55463B",
"M  c #5A443A",
"N  c #5C4B3D",
"B  c #634A3C",
"V  c #60543F",
"C  c #3B174E",
"Z  c #372A45",
"A  c #3D3142",
"S  c #482B46",
"D  c #5B2C4C",
"F  c #483944",
"G  c #563946",
"H  c #543052",
"J  c #593958",
"K  c #673946",
"L  c #793E44",
"P  c #673E56",
"I  c #753854",
"U  c #4E4145",
"Y  c #534343",
"T  c #5C4542",
"R  c #5D4A44",
"E  c #574349",
"W  c #5C4B4B",
"Q  c #5B5349",
"!  c #684C44",
"~  c #604D4A",
"^  c #794648",
"/  c #645143",
"(  c #6C5544",
")  c #6C5B46",
"_  c #64544A",
"`  c #6C544B",
"'  c #6E5B4B",
"]  c #735946",
"[  c #745A4D",
"{  c #795A48",
"}  c #6B4857",
"|  c #754556",
" . c #6C5554",
".. c #6F5D55",
"X. c #745B52",
"o. c #745B58",
"O. c #6B654E",
"+. c #72634B",
"@. c #7D624B",
"#. c #7C6A4D",
"$. c #6E6357",
"%. c #756754",
"&. c #7A665C",
"*. c #7D6B5D",
"=. c #7F7356",
"-. c #7C6960",
";. c #873741",
":. c #83454A",
">. c #86494A",
",. c #954A4E",
"<. c #874B57",
"1. c #974C51",
"2. c #8A5559",
"3. c #955055",
"4. c #9C5454",
"5. c #9C5D57",
"6. c #93535A",
"7. c #9A5458",
"8. c #A35555",
"9. c #A95656",
"0. c #AB5956",
"q. c #A45759",
"w. c #A35C5A",
"e. c #AB5C59",
"r. c #B15F5C",
"t. c #82654B",
"y. c #8A694E",
"u. c #85704F",
"i. c #846554",
"p. c #8D6D51",
"a. c #88675A",
"s. c #936C5A",
"d. c #837354",
"f. c #8C7653",
"g. c #847758",
"h. c #857A5A",
"j. c #8C7859",
"k. c #947254",
"l. c #997657",
"z. c #A6655E",
"x. c #AD625C",
"c. c #B2625C",
"v. c #A17D58",
"b. c #866B63",
"n. c #9D6862",
"m. c #8A7665",
"M. c #8C7369",
"N. c #92766D",
"B. c #957B6D",
"V. c #987C72",
"C. c #AC6961",
"Z. c #B26760",
"A. c #B26C62",
"S. c #AE7466",
"D. c #AD7C6A",
"F. c #B47366",
"G. c #B57C6C",
"H. c #B87869",
"J. c #94825D",
"K. c #99845C",
"L. c #A7855C",
"P. c #AC845D",
"I. c #B2895E",
"U. c #8B8363",
"Y. c #938362",
"T. c #988968",
"R. c #97936A",
"E. c #9D926A",
"W. c #9E8375",
"Q. c #A58C65",
"!. c #B4816E",
"~. c #A89367",
"^. c #AB9B6C",
"/. c #B49466",
"(. c #BB9E6C",
"). c #A28677",
"_. c #A58C75",
"`. c #A5897A",
"'. c #AA8E7C",
"]. c #BB8572",
"[. c #BD8974",
"{. c #AA9474",
"}. c #A99774",
"|. c #B0957E",
" X c #B49B7C",
".X c #B8997F",
"XX c #BDA26F",
"oX c #A9A272",
"OX c #BAA774",
"+X c #BAA27D",
"@X c #C18A75",
"#X c #C3A36E",
"$X c #C7B57D",
"%X c #D8B77A",
"&X c #AF9281",
"*X c #B29681",
"=X c #B69A81",
"-X c #B99E84",
";X c #BEA584",
":X c #C4AB85",
">X c #C5A887",
",X c #C5A988",
"<X c #CDB38B",
"1X c #D1B58D",
"2X c #D4B98E",
"3X c #DABC8F",
"4X c #D4BD91",
"5X c #DABE91",
"6X c #CFC98D",
"7X c #DDC293",
"8X c #DAC796",
"9X c #E1C696",
"0X c #E2C897",
"qX c #E3CB99",
"wX c #E8CD9B",
"eX c #E5D29D",
"rX c #E9D39E",
"tX c #E7D6A0",
"yX c #E8D7A1",
"uX c #E9DBA3",
"iX c #ECE1A7",
"pX c #EEE4AA",
"aX c #F1E5AA",
"sX c #F2EBAE",
"dX c #F7F0B2",
/* pixels */
"q q q q q q q q q q q q q q q q q q q q q q q q q q q q q q q q q q q q q q q q q q q q q q q q q q ",
"q q q q q q q q q q q q q q q q q q q q q q q q q q q q q q q q q q q q q q q q q q q q q q q q q q ",
"q q q q q q q q q q q q q q q q q q q q q q 7 X ; q q ; q q q q q q q q q q q q q q q q q q q q q q ",
"q q q q q q q q q q q q q q q q q q 0 q r 7 r O.n 6 9 k X 7 q q q q q q q q q q q q q q q q q q q q ",
"q q q q q q q q q q q q q q q q q 0 q = X X O.6XR.  u OXoX. q q q q q q q q q q q q q q q q q q q q ",
"q q q q q q q q q q q q q q q q q q o Q T.2 k XXJ.  k.$XR.X q q q q q q q q q q q q q q q q q q q q ",
"q q q q q q q q q q q q q q q q q t . %.6XQ.w #Xv.( %X/.o 3 e q 0 0 q e q q q q q q q q q q q q q q ",
"q q q q q q q q q q q q X X 0 q 7 O e # #.%X#.Q.#XQ.#X( p e O 3 q q $ X 7 q q q q q q q q q q q q q ",
"q q q q q q q q q q q 0 ) ) 9 + - a.!.D.' /.$X+.J.^.~.j.].!.s.s 2 6 / +.e 6 q q q q q q q q q q q q ",
"q q q q q q q q q q q @ ~.(.4 R D.@X[.G.+.E.~.e g.~.h.% a.[.].z.x @ ~.XX9 6 q q q q q q q q q q q q ",
"q q q q q q q q q q 3 m [ _ D G.F.G.[.D.` k x t./ n < a.D.].G.9.q.H ~ @.M 6 q q q q q q q q q q q q ",
"q q q q q q q q q q 3 k T S n.H.x.A.F.{ ].!.l [ s.a.G.[.[.].H.e.e.6.H T m 3 q q q q q q q q q q q q ",
"q q q q q q q q q q q @ Z } x.e.x.5.L 1 s.@XG.].@X@X[.].[.].z.4.e.7.J S @ q q q q q q q q q q q q q ",
"q q q q q q q q q q - ~ o.h K 1.r.x.@ ! 2.!.[.].[.A.A.G.F.5.v 8.e.e.>.W  .- q q q q q q q q q q q q ",
"q q q q q q q 0 e = E M.b.A Z >.e.1 2.n.9.G.[.].F.F.G.e.e.S.s.>.8.^ b E B.Y = e q q q q q q q q q q ",
"q q q q q q q q O y B.'.&.K } S h ` A.F.C.F.[.A.9.F.x.e.e.r.5.* $ Q ).=X'.N.y X q q q q q q q q q q ",
"q q q q q q q 3 N / W.*XM.;.<.<.S 4.A.!.C.F.x.8.e.8.e.e.9.e.^ F |  .,X5X'.`._ V 0 7 q q q q q q q q ",
"q q q q 0 e X #.XXK.&.&X_.*.o.8.P c A.G.9.9.^  .1.| K 8.c.r.:.Z ,.j ;X2X'.b.J.XXJ.X e q q q q q q q ",
"q q q q q q 6 s /.L.F ,X9X<X .9.6.u 8.Z.c.;.T.-XG E $.G c 1.8...B.b.:XrX4X~ l.(.m = q q q q q q q q ",
"q q q q q q 7 y { p.g.<X9X7X*.g K u ^ 8.f &.7X5X4X<X1X|.m._ , a.wXtXeXyX7X{ y.i.d 7 q q q q q q q q ",
"q q q q 0 q - M h.J.K.}.9XpX<X_.:X-XF Y '.1XqXuXsXsXpXeX7X5X+X:XrXdXsX9X.XJ.J.g.g.X q q q q q q q q ",
"q q q q q q = M E.h. .=XeXaX<X+X2X7X|.,X9X7XtXpXiXyXqX7XqXyXwX2X X:XqX7X,Xo.g.Y.+.@ q q q q q q q q ",
"q q q q q q 0 e o.*X<XqXsX6Xd.f.+.:XrXaXeX7XuXyX7X3XtXpXsXsX4Xj.f.u.+XyX8X1X-X .w q q q q q q q q q ",
"q q q q q 0 e . -.-X<X0XrX}.f.#X#._.wXqXyXsXpXuXtX0XpXpXqX0X+X) XXL.T.aXqX1X-XM.X e 0 q q q q q q q ",
"q q q q q q q O Q '.`.2X0XT.@ l.z U.5X7XpXuXwX5X7X8XpXeX7X9XE.d l.h d.7X7X-X`.).i 7 q q q q q q q q ",
"q q q q q q q - l ).b.Y <XQ.T.g.^.T.2X0X0X7X1X;X|..X5XuXiX9XQ.^.g.T.J.9X1XV.`.`.i 6 q q q q q q q q ",
"q q q q q q q 6 y M.W X Q }.U.j.#.b.7X+X}._.V.'.`.4XpXyX4X2XB.O.j.U.W._.W i &.B.X q 0 q q q q q q q ",
"q q q q q q q 7 i F @ F # %.|.V.'.;XO.@ o.V.-X1X:XtXiX5X|.*X5X_.).M.d @ i $ : d 8 q q q q q q q q q ",
"q q q q q q q q 7 ; 8 Y Y X T.7X}.i < z &.M.:X,X<X9X7X1X`.m._ *.Y.%.y l W 9 q ; q q q q q q q q q q ",
"q q q q q q q q q q 3 [ Y z Y +.p ' ` ` R i . m.9X7X0X|.F < ` z ! i.T k X.e 7 q q q q q q q q q q q ",
"q q q q q q q q q q * ` R / i.> ) B =.Q S x y # }.wX Xu < d.N ] Y i.] Y [ : q q q q q q q q q q q q ",
"q q q q q q q q q q * R X.] { t.] Y.^.G e.8.6.| S m.F P D ^.^.B y.( @.' ' & q 0 q q q q q q q q q q ",
"q q q q q q q q q q - z ' ] l.! +.oXO.I e.7.| q.<.C P e.<.F ~.' ! k.t.` R = q 0 0 q q q q q q q q q ",
"q q q q q q q q 0 0 - s X.p.I.i.l ( %.J <.e.q.7.6.J n.F.,.*.d.a [ I.p.X.z = 0 0 q 0 q q q q q q q q ",
"q q q q q q q q 0 0 3 s X.k.P.k.k.R H 7.0.0.e.r.e.^ A.A.0.| U p.k.P.p.X.z - 0 0 q q q q q q q q q q ",
"q q q q q q q q 0 8 8 8 X.@.v.p.L.R <.7.6.c.9.7.4.v >.4.e.q.! v.k.l.( X.i 3 0 0 q q q q q q q q q q ",
"q q q q q q q q 0 8 8 5 [ / k.t.P.N ,.7.2.A.9.<.K : G 7.e.e.^ L.y.k.( [ i 3 0 8 0 q q q q q q q q q ",
"q q q q q q q q 0 8 8 0 R / k.] I.N 1.3.| A.0.7.K 9 G 8.x.w.x P.@.p.] ~ e 5 8 0 q q q q q q q q q q ",
"q q q q q q q q 0 8 8 8 9 z v.{ I.N 1.3.! H.9.e.0.h :.9.A.C.x P.@.v./ 5 8 8 0 q q q q q q q q q q q ",
"q q q q q q q q 0 0 0 8 8 - @.] P./ 4.3.h G.e.q.8.> 4.7.z.5.` P.{ t.t - 0 8 0 q q q q q q q q q q q ",
"q q q q q q q q 0 0 0 0 8 0 @ n y.@.>.h : w.e.6.4.& 0.L ,.:.` p.B @ 0 0 8 8 q q q q q q q q q q q q ",
"q q q q q q q q 0 0 0 0 8 8 q 3 3 s n [ d :.3.K >.i >.Y x h 4 9 - q 8 8 0 q q q q q q q q q q q q q ",
"q q q q q q q q q q q q 0 8 8 0 0 - 6 e 8 h p & 4 s u z 9 * 8 8 0 8 8 8 q q q q q q q q q q q q q q ",
"q q q q q q q q q 0 q q q 0 0 8 8 0 8 3 8 4 4 0 8 3 3 = 8 0 8 0 0 8 8 0 q q q q q q q q q q q q q q ",
"q q q q q q q q q q q q q q q 0 8 8 0 8 8 0 0 8 8 0 0 0 0 8 8 8 0 0 0 0 q q q q q q q q q q q q q q ",
"q q q q q q q q q q q q q q 0 0 q q q 0 0 0 0 0 0 q 0 0 q q 0 q 0 0 q q q q q q q q q q q q q q q q ",
"q q q q q q q q q q q q q q 0 0 q q q q q q q q q 0 q q q q q q q q q q q q q q q q q q q q q q q q ",
"q q q q q q q q q q q q q q q 0 0 0 q q q q q q q q q q q q q q q q q 0 q q q q q q q q q q q q q q ",
"q q q q q q q q q q q q q q q q q q q q q q q q q q q q q q q q q q q q q q q q q q q q q q q q q q ",
"q q q q q q q q q q q q q q q q q q q q q q q q q q q q q q q q q q q q q q q q q q q q q q q q q q "
};
