/* XPM */
static char *_647f934ad92413396cc3a399b79f797D70mzSLvqGAudmvG[] = {
/* columns rows colors chars-per-pixel */
"50 50 4 1 ",
"  c #232529",
". c #262728",
"X c #272828",
"o c #282828",
/* pixels */
"oooooooooooooooooooooooooooooooooooooooooooooooooo",
"oooooooooooooooooooooooooooooooooooooooooooooooooo",
"oooooooooooooooooooooooooooooooooooooooooooooooooo",
"oooooooooooooooooooooooooooooooooooooooooooooooooo",
"oooooooooooooooooooooooooooooooooooooooooooooooooo",
"oooooooooooooooXoooooooooooooooooooooooXoooooooooo",
"ooooooooooooooXXoooooooooooooooo..ooooXXoooooooooo",
"ooooooooooo...    ..ooo..   ....     ..Xoooooooooo",
"ooooooooo.           .                  oooooooooo",
"ooooooooo.                              .ooooooooo",
"oooooooo.                                .oooooooo",
"ooooooo.                                 .oooooooo",
"ooooooo.                                  .ooooooo",
"oooooooo.                                 .ooooooo",
"ooooooo.                                  .ooooooo",
"ooooooo.                                  .ooooooo",
"ooooooo.                                  .Xoooooo",
"ooooooo.                                  XXoooooo",
"ooooooo.                                 .oooooooo",
"ooooooo.                                  .ooooooo",
"oooooooo                                  .ooooooo",
"oooooooo                                   Xoooooo",
"ooooooXX                                  .ooooooo",
"ooooooo.                                  .ooooooo",
"ooooooo.                                  .ooooooo",
"ooooooo.                                  Xooooooo",
"ooooooo.                                 .oooooooo",
"ooooooo.                                 .oooooooo",
"ooooooo.                                  Xooooooo",
"oooooooo                                  .ooooooo",
"oooooooo                                  .ooooooo",
"ooooooo.                                  .ooooooo",
"ooooooo.                                  .ooooooo",
"ooooooo.                                  .ooooooo",
"ooooooo.                                  XXoooooo",
"ooooooo.                                  .Xoooooo",
"oooooooo                                  .ooooooo",
"oooooooo.                                .oooooooo",
"ooooooooX.                              .ooooooooo",
"ooooooooXX                              .ooooooooo",
"ooooooooXoX.       ...    ..o...     ...oooooooooo",
"oooooooooXoooXo...XoooXXXoooooooXXXXXooooooooooooo",
"oooooooooooooooooooooooooooooooooooooooooooooooooo",
"oooooooooooooooooooooooooooooooooooooooooooooooooo",
"oooooooooooooooooooooooooooooooooooooooooooooooooo",
"oooooooooooooooooooooooooooooooooooooooooooooooooo",
"oooooooooooooooooooooooooooooooooooooooooooooooooo",
"oooooooooooooooooooooooooooooooooooooooooooooooooo",
"oooooooooooooooooooooooooooooooooooooooooooooooooo",
"oooooooooooooooooooooooooooooooooooooooooooooooooo"
};
