/* XPM */
static char *_5a072890e9e4b8fde2f9b6af2ac8d59EGOBbDlmUW2xbydl[] = {
/* columns rows colors chars-per-pixel */
"50 50 41 1 ",
"  c #3C526A",
". c #3B546F",
"X c #3C566F",
"o c #3D5771",
"O c #465265",
"+ c #46556A",
"@ c #48566A",
"# c #49576B",
"$ c #49576C",
"% c #4A586D",
"& c #4D5B6F",
"* c #4D5C6F",
"= c #515D6F",
"- c #425A73",
"; c #4F5E70",
": c #505E71",
"> c #506073",
", c #536276",
"< c #536377",
"1 c #546376",
"2 c #556477",
"3 c #536378",
"4 c #536478",
"5 c #55667B",
"6 c #57677C",
"7 c #57687C",
"8 c #59687B",
"9 c #5D6B7B",
"0 c #58697D",
"q c #5B6B7F",
"w c #5A6B80",
"e c #5B6C80",
"r c #5D6D81",
"t c #5E6F84",
"y c #5E7084",
"u c #627082",
"i c #637385",
"p c #657485",
"a c #7E8791",
"s c #868E9A",
"d c #89919D",
/* pixels */
"adsssssssssssssssssssssssssssssssssssssssssssssssd",
" oXooooooooooooooooooooooooooooooooooooooooooooo.-",
"9iuuuuuuuuuuuuuuuuuuuuuuuuuuuuuuuuuuuuuuuuuuuuuuup",
">5555555555555555555555555555555555555555555555540",
";5,,,,,,,,,,,,,,,,,,,,,,,,,,,,,,,,,,,,,,,,,,,,,,,5",
":5,,,,,,,,,,,,,,,,,,,,,,,,,,,,,,,,,,,,,,,,,,,,,,,5",
";5,,,,,,,,,,,,,,,,,,,,,,,,,,,,,,,,,,,,,,,,,,,,,,,5",
";5,,,,,,,,,,,,,,,,,,,,,,,,,,,,,,,,,,,,,,,,,,,,,,,5",
";5,,,,,,,,,,4,,,,,4,,,,4,,,,,,,,,,,,,,,,,,,,,,,,,5",
";5,,,,,,,,,,4,,,,,,,,,,4,,,,,,,,,,,,,,,,,,,,,,,,,5",
";5,,,,,,,,,,,,,,,,,,,,,,,,,,,4,,44,,,,4,,,,,,,,,,5",
":5,,,,,,,,,,,,,,,,,,,,,,,,,,,,,,,,,,,,4,,,,,,,,,,5",
":5,,,,,,,,,,,,,,,,,,,,,,,,,,,,,,,,,,,,,,,,,,,,,,,5",
":5,,,,,,,,,,,,,,,,4,,,,,,,,,,,,,,,,,,,,444,,,,,,,5",
":5,,,,,,,,,,,44,,,4,,,4,,,,,,,,,,,,,,,,4,,,,,,,,,5",
";5,,,,,,44,,,,,,,,,,,,4,,,,4,,,,4,,,,,,,,,,,,,,,,5",
";4,,,,,,,,,,,,,,,,,,,,,,,,,,,,,,,,,,,,,,,,,,,,,,,5",
",05,,,5,,,,,,,4,,,,55,,,,5,,,,,,5,,,,5,,,,5,,,5550",
"105,,55,,,,,,55,,,507,,,,55,,,,55,,,,5,,,,55,,707r",
"2w05,0055,755005,50005,5507,7550055,505,5707,7000r",
"8tr05err57r05rr050rrrr75rre5ee5rre50rrr75rr05errri",
"8tre5rr050r05rr050rrrr05rrr5r05rrr50rer05rre5errri",
"8tre5r7,50r05rre50,0rr05rre5055rrr505,r05rre5errri",
"8tr05r5,,0r05rrr55,5rr05rrr55,,rrr575,005rrr5errri",
"8tre5e,,,0r00rrr5,,5rr07rrr55,,0rr553,005rrr5errri",
"8tre5e,,,0r00rre55,5ry07rrr75,,0rr50,,005rrr5rrrri",
"8tre5r5,,0r00rre55,5rr07rrr77,,rrr505,005rrr5rrrri",
"8tre5r0,50r07rre50,0rr05rrr5055rrr5r7,r05rrr5rrrri",
"8trr7rr050re0rrr5r0err00rrr7r05rrr50e5r00rrr7rrrei",
"8trr7rr050re0rrr5r0rrr07rrr7r05rrr50e0r00rrr7rrrey",
"8yrr7rr070ye0rrr5r0rrr00rrr7r05rrr50r0y00rrr7rrrei",
"8trr7rr070re0rrr5r0rrr07rrr7r05rrr50r0r00rrr7rrrey",
"2e00500056005000500000750005005000500705500050000r",
"1000500755075000577700550075055000550505500750007r",
",7555555555555555555555555555555555555555555555550",
";5,,,,,,,,,,,,,,,,,,,,,,,,,,,,,,,,,,,,,,,,,,,,,,,5",
";5,,,,,,,,,,,,,,,,,,,,,,,,,,,,,,,,,,,,,,,,,,,,,,,5",
";5,,,,,,,,,,,,,,,,,,,,,,,,,,,,,,,,,,,,,,,,,,,,,,,5",
";5,,,,,,,,,,,,,,,,,,,,,,,,,,,,,,,,,,,,,,,,,,,,,,,5",
";5,,,,,,,,,,,,,,,,,,,,,,,,,,,,,,,,,,,,,,,,,,,,,,,5",
";5,,,,,,,,,,,,,,,,,,,,,,,,,,,,,,,,,,,,,,,,,,,,,,,5",
":5,555555555555555555555555555555555555555555555,5",
"@;&;*;*;;;;;;;;;;;;;;;;*;;;;*;;;;;;;*;;;****;;*;&:",
"O$@@@@@@@@@@@@@@@@@@@@@@@@@@@@@@@@@@@@@@@@@@@@@@+&",
"O%@@@@$@@@@@@@@@@@%@@@@@@@@@@@@@@@@@@@%@@@@@@@@@@&",
"O%@@$@@@@@@@@@@@$@@@@@@@@@@@@@@@@@@@$@@@@@@@@@@@@&",
"O%@@@@@@@@@@@@@@@@@@@@@@@@@@@%@@@@@@@@@@@@@@@@@@@&",
"O%@@@@@@@@@@@@@@@@@@@@@@@@@@@@@@@@@@@@@@@@@@@@@@@&",
"O%@@@@@@@@@@@@@@@@@@@@@@@@@@@@@@@@@@@@@@@@@@@$@@@&",
"O%@@@@@@@@@@@@@@@@@@@@@@@@%@@@@@@@@@@@@@@@@@@@@%+="
};
