/* XPM */
static char *_2358fa0537c405ad21d08902ad226d5NgNXTk2sRB7aSa5T[] = {
/* columns rows colors chars-per-pixel */
"50 50 172 2 ",
"   c #001424",
".  c #001D24",
"X  c #1C1F24",
"o  c #311F24",
"O  c #002224",
"+  c #0E2323",
"@  c #002824",
"#  c #142224",
"$  c #1C2424",
"%  c #1E2825",
"&  c #242424",
"*  c #2C2524",
"=  c #202825",
"-  c #2D2824",
";  c #352725",
":  c #3A2725",
">  c #342A25",
",  c #3D2A25",
"<  c #343224",
"1  c #67082D",
"2  c #442626",
"3  c #4F2627",
"4  c #442A25",
"5  c #4B2A26",
"6  c #542C26",
"7  c #5B2D27",
"8  c #512128",
"9  c #5B2D29",
"0  c #463025",
"q  c #4B3226",
"w  c #533425",
"e  c #5F3127",
"r  c #573228",
"t  c #652D27",
"y  c #632C28",
"u  c #6E2E29",
"i  c #702C28",
"p  c #7A2F2A",
"a  c #623426",
"s  c #6D3426",
"d  c #653A26",
"f  c #6C3D26",
"g  c #673028",
"h  c #6C3128",
"j  c #6A3C28",
"k  c #743E27",
"l  c #7B3C26",
"z  c #733329",
"x  c #7A3429",
"c  c #6C2C31",
"v  c #B4361D",
"b  c #B53A1F",
"n  c #BC0E22",
"m  c #872627",
"M  c #83342A",
"N  c #8B352B",
"B  c #84382A",
"V  c #8F382A",
"C  c #91352B",
"Z  c #98352C",
"A  c #93392B",
"S  c #9E3A2A",
"D  c #B5232A",
"F  c #AA3B25",
"G  c #A33B2C",
"H  c #AB3D2C",
"J  c #B33D2D",
"K  c #BA3E2D",
"L  c #C33E2A",
"P  c #C93F2A",
"I  c #D83924",
"U  c #BB401F",
"Y  c #854326",
"T  c #8D4827",
"R  c #994529",
"E  c #904828",
"W  c #9A4B2B",
"Q  c #914A33",
"!  c #A4432B",
"~  c #AA442C",
"^  c #A44829",
"/  c #AD4C2C",
"(  c #B54725",
")  c #B44A25",
"_  c #BA4E26",
"`  c #B3432C",
"'  c #BC432D",
"]  c #B54C2B",
"[  c #BB4A2B",
"{  c #AE5128",
"}  c #B75226",
"|  c #BB5227",
" . c #B75329",
".. c #B95428",
"X. c #9D663A",
"o. c #C2452D",
"O. c #C5492D",
"+. c #CB4D2D",
"@. c #D4462A",
"#. c #D44C2B",
"$. c #DB4B29",
"%. c #C7552C",
"&. c #CD532C",
"*. c #C05929",
"=. c #CB5B29",
"-. c #D4532C",
";. c #DA542B",
":. c #D45C2D",
">. c #DD592C",
",. c #C15730",
"<. c #E84520",
"1. c #E4572A",
"2. c #E45D2B",
"3. c #EA5F2B",
"4. c #F15022",
"5. c #F75C24",
"6. c #FA5C24",
"7. c #F35F28",
"8. c #DB6129",
"9. c #C76634",
"0. c #D46632",
"q. c #D76D32",
"w. c #DA6C30",
"e. c #D37038",
"r. c #E5612B",
"t. c #ED632B",
"y. c #E66B2F",
"u. c #EB6B2E",
"i. c #FC6426",
"p. c #F3652B",
"a. c #F96529",
"s. c #F5692B",
"d. c #FC6B2A",
"f. c #F4722E",
"g. c #FE712B",
"h. c #F5792F",
"j. c #FA792E",
"k. c #E56F30",
"l. c #E67630",
"z. c #ED7231",
"x. c #F17130",
"c. c #FB7E31",
"v. c #EF8A36",
"b. c #F38232",
"n. c #FA8433",
"m. c #FB8C33",
"M. c #FC8738",
"N. c #FE8B39",
"B. c #EC923C",
"V. c #FF9535",
"C. c #FF9C36",
"Z. c #F4913E",
"A. c #FC923C",
"S. c #FC9B38",
"D. c #FFA63C",
"F. c #FFAC3C",
"G. c #D09045",
"H. c #E99040",
"J. c #E59E47",
"K. c #F79740",
"L. c #F49E44",
"P. c #FA9A41",
"I. c #FFAD42",
"U. c #F7A848",
"Y. c #FCAE4A",
"T. c #FEB74D",
"R. c #FDB84D",
"E. c #FEC051",
"W. c #F1CC58",
"Q. c #FFD55B",
"!. c #FFDD5F",
"~. c #FFE361",
/* pixels */
"& & & & & & & & & & & & & & & & & & & & & & & & & & & & & & & & & & & & & & & & & & & & & & & & & & ",
"& & & & & & & & & & & & & & & & & & & & & & & & & & & & & & & & & & & & & & & & & & & & & & & & & & ",
"& & & & & & & & & & & & & & & & & & & & & & & & & & & & & & & & & & & & & & & & & & & & & & & & & & ",
"& & & & & & & & & & & & & & & & & & & & & & & & & & & & & & & & & & & & & & & & & & & & & & & & & & ",
"& & & & & & & & & & & & & & & & & & & & & & & & & & & & & & & & & & & & & & & & & & & & & & & & & & ",
"& & & & & & & & & & & & & & & & $ & & & & & & & & & & & & & & & & & & & & & & & & & & & & & & & & & ",
"& & & & & & & & & & & & & * * ; ; & & & & & & & & & & & & & & & & & & & & & & & & & & & & & & & & & ",
"& & & & & & & & & & & & # : 6 A N * & & & & & & & & & & & & & & & & & & & & & & & & & & & & & & & & ",
"& & & & & & & & & & & & ; g z B z * & & & & & $ & & & & & & & & & & & & & & & & & & & & & & & & & & ",
"& & & & & & & & & & * O h S x 7 $ * & & & & * > ; * * * * * * * * * * * * * * * * * * & & & & & & & ",
"& & & & & & & & & & * O x H x 6 O $ # # $ O 7 H G S S S S S S S S S S S S S S G Z 7 5 # & & & & & & ",
"& & & & & & & & & & & # 5 x x z g g g g g y z A A V V V V V V V V V V V V V V A V x z 5 # & & & & & ",
"& & & & & & & & & & & & # 5 g A J H H H H ` Z & ; : ; ; ; ; ; ; ; ; ; ; ; ; : ; 4 h N N # & & & & & ",
"& & & & & & & & & & & & $ * , y z g h h h x t # $ $ $ $ $ $ $ $ $ $ $ $ $ $ $ # & ; 4 M N 4 $ & & & ",
"& & & & & & & & & & & & & & & # O O O O O O O & & & & & & & & & & & & & & & & & * * ; z B , $ & & & ",
"& & & & & & & & & & & & & & & & & & & & * & $ $ $ & % % = % $ & $ $ $ & $ $ $ $ ; g B N * * & & & & ",
"& & & & & & & & & & & & & & & & & # # # f .. .( ( ( b v v U } W  ..._ ( | *.=.f * x x 6 O & & & & & ",
"& & & & & & & & & & & & & & & & - d 6 5 / a.d.c.j.n.Z.P.P.Z.0.~ %.:.h.n.u.1.t.R 7 B z O * & & & & & ",
"& & & & & & & & & & & & & & & # d =.` G -.i.j.D.C.I.Q.~.~.W.X.1 c Q B.F.q.D O.J ~ E k # & & & & & & ",
"& & & & & & & & & & & & & & * . ) 6.P K >.a.g.m.m.A.Y.T.R.U.9.V ~ ,.b.V.y.#.>.3.>.a , & & & & & & & ",
"& & & & & & & & & & & & & & & o w.A.0.+.;.d.d.a.a.a.6.6.5.i.d.:.p.d.d.a.d.d.8.=.{ * . * & & & & & & ",
"& & & & & & & & & & & * # ; 9 m H.Q.K.x.;.p.p.a.a.a.a.a.a.a.d.s.d.d.d.a.t.r.Y 0 4 & & & & & & & & & ",
"& & & & & & & & & & * # w ^ [ K B.T.M.g.3.+.>.g.d.d.d.d.d.d.d.d.d.d.d.p.^ k : . # & & & & & & & & & ",
"& & & & & & & & & & * . Y 3.$.L l.d.a.d.s.O.-.p.t.t.t.t.t.t.p.r.=.=.=.] 7 . & * & & & & & & & & & & ",
"& & & & & & & & & & ; . Y r.;.o.r.d.a.d.d.p.2.' ' O.' O.O.O.O.` q q q 6 : & * & & & & & & & & & & & ",
"& & & & & & & & & & & * F z.Z.J.e.$.s.d.d.g.s.-.>.[ u N S H M i M u * O # # # & & & & & & & & & & & ",
"& & & & & & & & & * O r I M.E.!.G.n r.t.p.d.d.t.p.=.w 5 z A ; ; S A 9 : 5 w 5 ; & & & & & & & & & & ",
"& & & & & & & & & * . j 4.M.E.!.L.<.-.O.O.d.t.' ' &.=.r   4 * * ; 5 B C ] =.~ y & & & & & & & & & & ",
"& & & & & & & & & * . k i.c.P.Y.N.i.>.-.-.;.;.;.;.&. .l a ; # ; 5 t G O.t.d.#.p & & & & & & & & & & ",
"& & & & & & & & & * . s p.p.p.a.d.d.d.d.p.O.+.:.8.{ > k T , . 6 ` ` O.2.p.t.[ y & & & & & & & & & & ",
"& & & & & & & & & * O 7 O.+.1.7.d.d.d.d.3.t.%.@ < a A a > * . x 3.3.t.d.-.` x * & & & & & & & & & & ",
"& & & & & & & & & * O 6 ' -.-.;.>.>.2.>.O.2.&.Y l y M 7 * # 3 [ d.d.g.d.! 8 : # & & & & & & & & & & ",
"& & & & & & & & & * O 3 -.p.r.&.' O.' ' ' J O.t.>.Z > y z 5 G 2.d.d.s.-.t . & & & & & & & & & & & & ",
"& & & & & & & & & * O 5 #.g.n.v.k.1.3.3.3.' O.+.>.:.A Z G S 2.s.d.d.;.A ; $ & & & & & & & & & & & & ",
"& & & & & & & & & * O 6 @.j.V.D.n.i.g.g.p.K O.-.t.p.O.' O.O.s.d.t.2.S 2 # & & & & & & & & & & & & & ",
"& & & & & & & & & * + 5 o.f.m.S.c.a.s.s.;.J +.d.d.3.O.-.>.O.t.t.[ G 2 # & & & & & & & & & & & & & & ",
"& & & & & & & & & & & & B -.u.h.s.O.O.O.O.>.3.d.3.-.2.p.p.>.-.-.s 7 X & & & & & & & & & & & & & & & ",
"& & & & & & & & & & & $ * A O.;.2.+.+.+.-.d.d.d.-.O.s.g.g.p.O.~ $ & & & & & & & & & & & & & & & & & ",
"& & & & & & & & & & & & + 5 z A +.t.s.p.p.d.p.p.-.O.t.s.p.2.` y $ & & & & & & & & & & & & & & & & & ",
"& & & & & & & & & & & & & * ; 4 B +.-.-.-.-.+.+.O.' +.] ^ l e ; & & & & & & & & & & & & & & & & & & ",
"& & & & & & & & & & & & & & & & : N C N N N C C C A C y 2 & # & & & & & & & & & & & & & & & & & & & ",
"& & & & & & & & & & & & & & & & & * ; * ; * * * ; ; ; * * & & & & & & & & & & & & & & & & & & & & & ",
"& & & & & & & & & & & & & & & & & $ $ $ $ $ $ $ $ $ $ & & & & & & & & & & & & & & & & & & & & & & & ",
"& & & & & & & & & & & & & & & & & & & & & & & & & & & & & & & & & & & & & & & & & & & & & & & & & & ",
"& & & & & & & & & & & & & & & & & & & & & & & & & & & & & & & & & & & & & & & & & & & & & & & & & & ",
"& & & & & & & & & & & & & & & & & & & & & & & & & & & & & & & & & & & & & & & & & & & & & & & & & & ",
"& & & & & & & & & & & & & & & & & & & & & & & & & & & & & & & & & & & & & & & & & & & & & & & & & & ",
"& & & & & & & & & & & & & & & & & & & & & & & & & & & & & & & & & & & & & & & & & & & & & & & & & & ",
"& & & & & & & & & & & & & & & & & & & & & & & & & & & & & & & & & & & & & & & & & & & & & & & & & & ",
"& & & & & & & & & & & & & & & & & & & & & & & & & & & & & & & & & & & & & & & & & & & & & & & & & & "
};
