/* XPM */
static char *_eaf743890db473a83b0ee91ec8fb80dryrgCmScjwoK92wH[] = {
/* columns rows colors chars-per-pixel */
"50 50 180 2 ",
"   c #000000",
".  c #00000B",
"X  c #0C0B0A",
"o  c #150E08",
"O  c #000011",
"+  c #0E0C13",
"@  c #00001B",
"#  c #12111B",
"$  c #261B00",
"%  c #000123",
"&  c #020C25",
"*  c #0A0F20",
"=  c #000029",
"-  c #000D2A",
";  c #001025",
":  c #0F1321",
">  c #0D1827",
",  c #07152C",
"<  c #0D152A",
"1  c #0F182C",
"2  c #131623",
"3  c #151A24",
"4  c #1A1C25",
"5  c #10152A",
"6  c #151B2D",
"7  c #1A1E2C",
"8  c #1E2025",
"9  c #1E212D",
"0  c #1B2639",
"q  c #242427",
"w  c #282727",
"e  c #292827",
"r  c #242529",
"t  c #29272A",
"y  c #27282A",
"u  c #282828",
"i  c #312E27",
"p  c #32312E",
"a  c #222531",
"s  c #2A2734",
"d  c #262833",
"f  c #2B2C33",
"g  c #342D36",
"h  c #2E3036",
"j  c #2F3139",
"k  c #303031",
"l  c #393837",
"z  c #34353A",
"x  c #3A323A",
"c  c #393B3C",
"v  c #443C39",
"b  c #494138",
"n  c #524B32",
"m  c #2F3440",
"M  c #3B3B45",
"N  c #453D40",
"B  c #474646",
"V  c #514543",
"C  c #554C45",
"Z  c #594F49",
"A  c #585243",
"S  c #585A4A",
"D  c #49525F",
"F  c #5C5C5E",
"G  c #796A4F",
"H  c #726257",
"J  c #756359",
"K  c #7D6B5D",
"L  c #81705F",
"P  c #846F66",
"I  c #847063",
"U  c #887366",
"Y  c #8D7868",
"T  c #8F786B",
"R  c #927C6C",
"E  c #9A8A5C",
"W  c #9F8C65",
"Q  c #97806E",
"!  c #9E886D",
"~  c #878479",
"^  c #AE956B",
"/  c #A38C74",
"(  c #A78F78",
")  c #A69173",
"_  c #AA9476",
"`  c #A69970",
"'  c #AF987B",
"]  c #B39B7D",
"[  c #AFA078",
"{  c #BFA37A",
"}  c #D6B777",
"|  c #DBBF7C",
" . c #8C8B84",
".. c #8A8A8D",
"X. c #928F86",
"o. c #939086",
"O. c #949395",
"+. c #AEA584",
"@. c #B3AA87",
"#. c #ACACAD",
"$. c #B7B3A3",
"%. c #B0B0B1",
"&. c #BBBBBC",
"*. c #C4AB87",
"=. c #C8AE89",
"-. c #CDB38C",
";. c #D3B687",
":. c #D3B88E",
">. c #DBBE8D",
",. c #C6B695",
"<. c #D3BB90",
"1. c #D8BE92",
"2. c #C3B6A5",
"3. c #DDC28D",
"4. c #DCC394",
"5. c #DDC69B",
"6. c #DBCC9B",
"7. c #E2C88E",
"8. c #E1C596",
"9. c #E3CB97",
"0. c #E3CD9E",
"q. c #E8CC9A",
"w. c #E5D693",
"e. c #E7D892",
"r. c #E5D19D",
"t. c #CAC4AA",
"y. c #DCCEA1",
"u. c #DDD0A4",
"i. c #CCC3B6",
"p. c #E3CDA1",
"a. c #E3CFAC",
"s. c #E5D5A5",
"d. c #E9D3A3",
"f. c #EADCA4",
"g. c #E5D2AB",
"h. c #ECDDAB",
"j. c #E5D3B9",
"k. c #EADCBB",
"l. c #EEE2B4",
"z. c #EEE4BD",
"x. c #F2E4B3",
"c. c #F5E7BB",
"v. c #C4C5C7",
"b. c #CECECB",
"n. c #DBD6C7",
"m. c #CECFD1",
"M. c #CFD1D3",
"N. c #D5D5D6",
"B. c #D5D6DB",
"V. c #DBDBDC",
"C. c #E8D7C1",
"Z. c #E3DCCD",
"A. c #ECDFCE",
"S. c #EDE0C0",
"D. c #EEE4CD",
"F. c #F0E6C1",
"G. c #F4EAC3",
"H. c #F1E7CD",
"J. c #F2EACC",
"K. c #EFE6D6",
"L. c #F3E7D6",
"P. c #F4EDD3",
"I. c #F1E7D9",
"U. c #F4EDDB",
"Y. c #F7F1D2",
"T. c #FCF4D7",
"R. c #F7F1DC",
"E. c #E3E3E5",
"W. c #E5E8EE",
"Q. c #F6EEE4",
"!. c #F7F2E4",
"~. c #F9F5E4",
"^. c #F6F0E9",
"/. c #FAF6EA",
"(. c #FCF9EE",
"). c #F5F5F4",
"_. c #F8F6F2",
"`. c #FCFAF3",
"'. c #FDFDFA",
"]. c white",
/* pixels */
"u u u u u u u u u u u u u u u u u u u u u u u u u u u u u u u u u u u u u u u u u u u u u u u u u u ",
"u u u u u u u u u u u u u u u u u u u u u u u u u u u u u u u u u u u u u u u u u u u u u u u u u u ",
"u u u u u u u u u u u u u u u u u u u u u u u u u u u u u u u u u u u u u u u u u u u u u u u u u u ",
"u u u u u u u u u u u u u u u u u u u u u u u u u u u u u u u u u u u u u u u u u u u u u u u u u u ",
"u u u u u u u u u u u u u u u u u u u u u u u u u u u u u u u u u u u u u u u u u u u u u u u u u u ",
"u u u u u u u u u u u u u u u u u u u u u u u u u u u u u u u u u u u u u u u u u u u u u u u u u u ",
"u u u u u u u u u u u u u u u u u u u u u u u u u u u u u u u u u u u u u u u u u u u u u u u u u u ",
"u u u u u u u u u u u u u u u u u u u u u u u u u u u u u u u u u u u u u u u u u u u u u u u u u u ",
"u u u u u u u u u u u u u u u u u u u u u u u u u u u u u u u u u u u u u u u u u u u u u u u u u u ",
"u u u u u u u u u u u u u u u u u u u u u u u u u u u u u u u u u u u u u u u u u u u u u u u u u u ",
"u u u u u u u u u u u u u u u u u u u u u u u u u u u u u u u u u u u u u u u u u u u u u u u u u u ",
"u u u u u u u u u u u u u u u u u u u u u w w u u u e e u u u u u u u u u u u u u u u u u u u u u u ",
"u u u u u u u u u u u u u u u u u u u w u z k r e w y r r u u u u u u u u u u u u u u u u u u u u u ",
"u u u u u u u u u u u u u u u u u u u f 6     6 f f < & a r u u e u u u u u u u u u u u u u u u u u ",
"u u u u u u u u u u u u u u w u u y 6   c &...      4 d   3 r d f w u u u u u u u u u u u u u u u u ",
"u u u u u u u u u u u u u w d f e z v ~ V.].'.E.o.X.E.).#.o p r   f w u u u u u u u u u u u u u u u ",
"u u u u u u u u u u u u w t @ $ t.B.n.T.].'.].].].].].].].,.i.M.F   h w u u u u u u u u u u u u u u ",
"u u u u u u u u u u u u e 9 c @.(.].`.U.].].].`.A._.].].'.d.L.].m.@ 9 t e u u u u u u u u u u u u u ",
"u u u u u u u u u u u w l . E G.].].'.'./.~.U.5.a.'.].`.g.} I.].`. .  f r r u u u u u u u u u u u u ",
"u u u u u u u u u u w f   0 2.0.H.`.]./.r.9.g.!./.~.H.F.z.z.R.].U.6.V % 9 6 r u u u u u u u u u u u ",
"u u u u u u u u u u w j B #.'.j.| l.`.~.p.;.I.].].P.e.R.].].U.~.x.^ 0 6 d 6 r u u u u u u u u u u u ",
"u u u u u u u u u t e . b.].].].C.K.].].'.4.D.].].H.l.`.M.N.].t.[ Z @ f 2 8 u w u u u u u u u u u u ",
"u u u u u u u u u t t X N.].].].H.I.].]./.s.s.R.U.f.G.b.   .Z.i   m f . z f q u u u u u u u u u u u ",
"u u u u u u u u u e f   $.(.`.R.z.J.!.(.`.`.P.F./.P.c.W % u.`   e     #.v.: w t w u u u u u u u u u ",
"u u u u u u u u u e k * n s.x./.].P.z.'.].].].'.].].(.) O 8.)   O.N.#.&.V.@ u k w u u u u u u u u u ",
"u u u u u u u u u r p 4 v <.h.(.].`.H.'.].].^.'.].].Q.5.@.s.+.  O.%.#.c F s 4 u u u u u u u u u u u ",
"u u u u u u u u u r p # C :.d.z.S.k.g.!.(.U.0.I.`.D.g.l.x.Y.#.  4     &   5 r e u u u u u u u u u u ",
"u u u u u u u u u w p + S y.0.f.s.7.h.!.~.P.f.l.f.J.~.H.w.P.W.D O M d 9 a 6 r u u u u u u u u u u u ",
"u u u u u u u u u w p + A 5.4.0.x.Y.R.].].].P.h.G.].].'.P.F.L.,.G % 7 7 6 7 r u u u u u u u u u u u ",
"u u u u u u u u u u e 2 b ! =.9.4.Z.Q.!.~.(.!.p.k./.~./.H.r.>.>.R C g 1 9 u u u u u u u u u u u u u ",
"u u u u u u u u u u e r 7 @ K ) Q { 7.0.s.6.4.>.3.3.s.r.;.-.8.:.R I x > u u u u u u u u u u u u u u ",
"u u u u u u u u u u u e r 9 @ = P *.8.8.( U -.q.1.4.8.8./ ( 8.:.H @ r r e u u u u u u u u u u u u u ",
"u u u u u u u u u u u u r 9 a 7 V U Y / Y L _ ) I ] *.' Y J K H s , 9 u u u u u u u u u u u u u u u ",
"u u u u u u u u u u u u u u r 6 % s % = N - @ O - x g x v % @ @ < 9 r u u u u u u u u u u u u u u u ",
"u u u u u u u u u u u u r w w r r 6 a 9 & r t t r 3 3 3 ; 9 f a 7 9 w w u u u u u u u u u u u u u u ",
"u u u u u u u u u u u u r q q q r 9 7 9 r r r r w u u t t 9 6 7 r q q q w u u u u u u u u u u u u u ",
"u u u u u u u u u u u u w q q q q q r q q q q q q q q q q q r r q q q q q r u u u u u u u u u u u u ",
"u u u u u u u u u u u u w q q q q q q q q q q q q q q q q q q q q q q q w u u u u u u u u u u u u u ",
"u u u u u u u u u u u u r w q q q q q q q q q q q q q q q q q q q q q w u u u u u u u u u u u u u u ",
"u u u u u u u u u u u u u u r r r q q q q q q q q q q q q q q q w r r u u u u u u u u u u u u u u u ",
"u u u u u u u u u u u u u u u u u r r r w w w w w w w w w r r r u u u u u u u u u u u u u u u u u u ",
"u u u u u u u u u u u u u u u u u u u u u u u u u u u u u u u u u u u u u u u u u u u u u u u u u u ",
"u u u u u u u u u u u u u u u u u u u u u u u u u u u u u u u u u u u u u u u u u u u u u u u u u u ",
"u u u u u u u u u u u u u u u u u u u u u u u u u u u u u u u u u u u u u u u u u u u u u u u u u u ",
"u u u u u u u u u u u u u u u u u u u u u u u u u u u u u u u u u u u u u u u u u u u u u u u u u u ",
"u u u u u u u u u u u u u u u u u u u u u u u u u u u u u u u u u u u u u u u u u u u u u u u u u u ",
"u u u u u u u u u u u u u u u u u u u u u u u u u u u u u u u u u u u u u u u u u u u u u u u u u u ",
"u u u u u u u u u u u u u u u u u u u u u u u u u u u u u u u u u u u u u u u u u u u u u u u u u u ",
"u u u u u u u u u u u u u u u u u u u u u u u u u u u u u u u u u u u u u u u u u u u u u u u u u u ",
"u u u u u u u u u u u u u u u u u u u u u u u u u u u u u u u u u u u u u u u u u u u u u u u u u u "
};
